<svg xmlns="http://www.w3.org/2000/svg" version="1.0" width="322.000000pt" height="322.000000pt" viewBox="0 0 322.000000 322.000000" preserveAspectRatio="xMidYMid meet">
<metadata fill="#1b355e">
Created by potrace 1.16, written by Peter Selinger 2001-2019
</metadata>
<g transform="translate(0.000000,322.000000) scale(0.100000,-0.100000)" fill="#1b355e" stroke="none">
<path d="M1330 3199 c-216 -37 -460 -138 -644 -266 -158 -110 -345 -314 -462 -503 -59 -96 -163 -349 -180 -440 -3 -14 -13 -66 -23 -117 -19 -101 -26 -393 -11 -473 5 -25 11 -65 15 -90 17 -124 95 -338 173 -480 95 -171 291 -401 418 -490 12 -8 50 -35 85 -60 35 -25 75 -51 89 -59 203 -112 371 -174 545 -202 111 -18 425 -20 530 -3 556 88 1021 466 1250 1019 17 40 41 113 51 150 4 17 8 35 10 40 40 155 50 488 20 660 -19 108 -20 113 -29 135 -3 8 -12 38 -20 65 -104 361 -371 701 -720 914 -37 22 -69 41 -72 41 -2 0 -40 18 -84 39 -64 31 -210 83 -301 107 -125 32 -485 40 -640 13z m511 -1156 c-1 -121 2 -223 6 -226 5 -3 67 -9 139 -12 71 -4 135 -9 143 -11 19 -6 -499 -526 -521 -522 -18 3 -528 505 -528 519 0 5 63 9 139 9 101 0 142 3 148 12 4 7 8 56 8 108 0 52 2 152 3 223 l2 127 231 -2 232 -3 -2 -222z m304 -1018 l0 -77 -530 2 c-291 0 -533 4 -538 9 -4 4 -7 37 -5 72 l3 64 185 5 c102 3 343 4 535 3 l350 -1 0 -77z" fill="#1b355e"/>
</g>
</svg>